<svg width="17" height="20" viewBox="0 0 17 20" fill="none" xmlns="http://www.w3.org/2000/svg">
<path d="M13.8744 10.4573C13.8487 7.96447 15.9815 6.76887 16.0769 6.70847C14.8782 5.01767 13.0107 4.78567 12.346 4.75927C10.758 4.60367 9.24581 5.66167 8.44017 5.66167C7.6362 5.66167 6.39146 4.78207 5.07459 4.80447C3.34224 4.82927 1.74549 5.77647 0.854025 7.27247C-0.945073 10.2833 0.393781 14.7453 2.14685 17.1889C3.0039 18.3833 4.02598 19.7273 5.3669 19.6781C6.65932 19.6289 7.14693 18.8717 8.70927 18.8717C10.2716 18.8717 10.7103 19.6781 12.0773 19.6529C13.4672 19.6285 14.3483 18.4357 15.1983 17.2365C16.1822 15.8489 16.5873 14.5053 16.6114 14.4373C16.5811 14.4237 13.9021 13.4337 13.8744 10.4573Z" fill="black"/>
<path d="M11.3057 3.142C12.0168 2.3092 12.4986 1.152 12.3676 0C11.3414 0.04 10.0991 0.658 9.36234 1.49C8.70224 2.2284 8.12507 3.404 8.27973 4.5352C9.42454 4.6208 10.5921 3.9732 11.3057 3.142Z" fill="black"/>
</svg>
