<svg width="10" height="6" viewBox="0 0 10 6" fill="none" xmlns="http://www.w3.org/2000/svg">
<path fill-rule="evenodd" clip-rule="evenodd" d="M9.28199 0.771949C9.28199 0.852555 9.25099 0.923859 9.18899 0.985863L4.85491 5.31994C4.79291 5.38194 4.7216 5.41295 4.641 5.41295C4.56039 5.41295 4.48909 5.38194 4.42708 5.31994L0.093006 0.985863C0.0310017 0.923859 0 0.852555 0 0.771949C0 0.691344 0.0310017 0.62004 0.093006 0.558036L0.558036 0.093006C0.62004 0.0310017 0.691344 0 0.771949 0C0.852555 0 0.923859 0.0310017 0.985863 0.093006L4.641 3.74814L8.29613 0.093006C8.35814 0.0310017 8.42944 0 8.51005 0C8.59065 0 8.66195 0.0310017 8.72396 0.093006L9.18899 0.558036C9.25099 0.62004 9.28199 0.691344 9.28199 0.771949Z" fill="black"/>
</svg>
