<svg width="402" height="400" viewBox="0 0 402 400" fill="none" xmlns="http://www.w3.org/2000/svg">
<path fill-rule="evenodd" clip-rule="evenodd" d="M401.708 189.12C396.283 87.7255 313.837 5.68981 211.934 0.290096C96.1612 -5.84439 0 86.1148 0 200C0 294.126 65.7067 373.225 153.864 394.393V362.426C77.6 341.766 21.3408 272.307 21.3408 189.967C21.3408 89.8883 104.422 8.75135 205.561 11.2577C299.788 13.5938 376.95 89.3195 380.527 183.04C384.207 279.438 310.701 359.855 216.712 368.002V169.51C216.712 146.098 235.786 127.119 259.315 127.119H276.501V144.215C276.501 166.462 259.181 184.724 237.258 186.44V217.792C276.523 216.037 307.925 183.711 307.925 144.215V95.8515H259.315C218.431 95.8515 185.288 128.829 185.288 169.51V200.049C173.238 191.592 158.55 186.61 142.684 186.61H94.0752V234.974C94.0752 274.469 125.478 306.793 164.742 308.549V277.196C142.82 275.481 125.5 257.22 125.5 234.974V217.877H142.684C164.284 217.877 182.137 233.965 184.881 254.723H185.288V399.332C190.479 399.733 195.707 400 201 400C315.455 400 407.875 304.317 401.708 189.12Z" fill="#40E810"/>
</svg>
