<svg width="25" height="25" viewBox="0 0 25 25" fill="none" xmlns="http://www.w3.org/2000/svg">
<path fill-rule="evenodd" clip-rule="evenodd" d="M24.9448 11.609C24.6079 5.38496 19.4883 0.349265 13.1604 0.0178074C5.97131 -0.358753 0 5.28609 0 12.2768C0 18.0547 4.08018 22.9101 9.55447 24.2095V22.2473C4.81872 20.9791 1.32519 16.7154 1.32519 11.661C1.32519 5.51772 6.48426 0.537195 12.7647 0.691043C18.6159 0.834443 23.4074 5.48281 23.6295 11.2358C23.858 17.1531 19.2935 22.0895 13.4571 22.5895V10.4052C13.4571 8.96812 14.6416 7.80308 16.1027 7.80308H17.1698V8.85256C17.1698 10.2181 16.0943 11.3392 14.733 11.4445V13.369C17.1712 13.2613 19.1212 11.277 19.1212 8.85256V5.88377H16.1027C13.5639 5.88377 11.5058 7.90806 11.5058 10.4052V12.2798C10.7575 11.7608 9.84547 11.4549 8.86023 11.4549H5.84177V14.4237C5.84177 16.8481 7.79177 18.8323 10.23 18.9401V17.0155C8.86865 16.9102 7.79313 15.7893 7.79313 14.4237V13.3742H8.86023C10.2015 13.3742 11.3101 14.3618 11.4805 15.636H11.5058V24.5127C11.8282 24.5373 12.1528 24.5537 12.4815 24.5537C19.5887 24.5537 25.3277 18.6803 24.9448 11.609Z" fill="white"/>
</svg>
