<svg width="25" height="24" viewBox="0 0 25 24" fill="none" xmlns="http://www.w3.org/2000/svg">
<path d="M13.5 11.95C13.9833 11.4167 14.3543 10.8083 14.613 10.125C14.871 9.44167 15 8.73333 15 8C15 7.26667 14.871 6.55833 14.613 5.875C14.3543 5.19167 13.9833 4.58333 13.5 4.05C14.5 4.18333 15.3333 4.625 16 5.375C16.6667 6.125 17 7 17 8C17 9 16.6667 9.875 16 10.625C15.3333 11.375 14.5 11.8167 13.5 11.95ZM18.525 20C18.675 19.8833 18.7917 19.7373 18.875 19.562C18.9583 19.3873 19 19.1917 19 18.975V17C19 16.4 18.8667 15.8293 18.6 15.288C18.3333 14.746 17.9833 14.2667 17.55 13.85C18.4 14.15 19.1877 14.5373 19.913 15.012C20.6377 15.4873 21 16.15 21 17V19C21 19.2833 20.904 19.5207 20.712 19.712C20.5207 19.904 20.2833 20 20 20H18.525ZM22 13C21.7167 13 21.4793 12.904 21.288 12.712C21.096 12.5207 21 12.2833 21 12V11H20C19.7167 11 19.4793 10.904 19.288 10.712C19.096 10.5207 19 10.2833 19 10C19 9.71667 19.096 9.479 19.288 9.287C19.4793 9.09567 19.7167 9 20 9H21V8C21 7.71667 21.096 7.479 21.288 7.287C21.4793 7.09567 21.7167 7 22 7C22.2833 7 22.5207 7.09567 22.712 7.287C22.904 7.479 23 7.71667 23 8V9H24C24.2833 9 24.5207 9.09567 24.712 9.287C24.904 9.479 25 9.71667 25 10C25 10.2833 24.904 10.5207 24.712 10.712C24.5207 10.904 24.2833 11 24 11H23V12C23 12.2833 22.904 12.5207 22.712 12.712C22.5207 12.904 22.2833 13 22 13ZM9 12C7.9 12 6.95833 11.6083 6.175 10.825C5.39167 10.0417 5 9.1 5 8C5 6.9 5.39167 5.95833 6.175 5.175C6.95833 4.39167 7.9 4 9 4C10.1 4 11.0417 4.39167 11.825 5.175C12.6083 5.95833 13 6.9 13 8C13 9.1 12.6083 10.0417 11.825 10.825C11.0417 11.6083 10.1 12 9 12ZM2 20C1.71667 20 1.47933 19.904 1.288 19.712C1.096 19.5207 1 19.2833 1 19V17.2C1 16.6333 1.146 16.1123 1.438 15.637C1.72933 15.1623 2.11667 14.8 2.6 14.55C3.63333 14.0333 4.68333 13.6457 5.75 13.387C6.81667 13.129 7.9 13 9 13C10.1 13 11.1833 13.129 12.25 13.387C13.3167 13.6457 14.3667 14.0333 15.4 14.55C15.8833 14.8 16.2707 15.1623 16.562 15.637C16.854 16.1123 17 16.6333 17 17.2V19C17 19.2833 16.9043 19.5207 16.713 19.712C16.521 19.904 16.2833 20 16 20H2ZM9 10C9.55 10 10.021 9.804 10.413 9.412C10.8043 9.02067 11 8.55 11 8C11 7.45 10.8043 6.97933 10.413 6.588C10.021 6.196 9.55 6 9 6C8.45 6 7.97933 6.196 7.588 6.588C7.196 6.97933 7 7.45 7 8C7 8.55 7.196 9.02067 7.588 9.412C7.97933 9.804 8.45 10 9 10ZM3 18H15V17.2C15 17.0167 14.9543 16.85 14.863 16.7C14.771 16.55 14.65 16.4333 14.5 16.35C13.6 15.9 12.6917 15.5623 11.775 15.337C10.8583 15.1123 9.93333 15 9 15C8.06667 15 7.14167 15.1123 6.225 15.337C5.30833 15.5623 4.4 15.9 3.5 16.35C3.35 16.4333 3.22933 16.55 3.138 16.7C3.046 16.85 3 17.0167 3 17.2V18Z" fill="white"/>
</svg>
