<svg width="18" height="22" viewBox="0 0 18 22" fill="none" xmlns="http://www.w3.org/2000/svg">
<path fill-rule="evenodd" clip-rule="evenodd" d="M3.6665 6.33333C3.6665 9.27885 6.05432 11.6667 8.99984 11.6667C10.4143 11.6667 11.7709 11.1048 12.7711 10.1046C13.7713 9.10438 14.3332 7.74782 14.3332 6.33333C14.3332 3.38781 11.9454 1 8.99984 1C6.05432 1 3.6665 3.38781 3.6665 6.33333ZM4.99984 6.33333C4.99984 4.12419 6.7907 2.33333 8.99984 2.33333C10.0607 2.33333 11.0781 2.75476 11.8283 3.50491C12.5784 4.25505 12.9998 5.27247 12.9998 6.33333C12.9998 8.54247 11.209 10.3333 8.99984 10.3333C6.7907 10.3333 4.99984 8.54247 4.99984 6.33333Z" fill="#101820"/>
<path d="M11.8283 3.50491L11.6515 3.68168L11.8283 3.50491ZM8.99984 11.4167C6.19239 11.4167 3.9165 9.14078 3.9165 6.33333H3.4165C3.4165 9.41692 5.91625 11.9167 8.99984 11.9167V11.4167ZM12.5943 9.92779C11.641 10.8811 10.348 11.4167 8.99984 11.4167V11.9167C10.4806 11.9167 11.9008 11.3284 12.9479 10.2813L12.5943 9.92779ZM14.0832 6.33333C14.0832 7.68152 13.5476 8.97448 12.5943 9.92779L12.9479 10.2813C13.9949 9.23427 14.5832 7.81413 14.5832 6.33333H14.0832ZM8.99984 1.25C11.8073 1.25 14.0832 3.52589 14.0832 6.33333H14.5832C14.5832 3.24974 12.0834 0.75 8.99984 0.75V1.25ZM3.9165 6.33333C3.9165 3.52589 6.19239 1.25 8.99984 1.25V0.75C5.91625 0.75 3.4165 3.24974 3.4165 6.33333H3.9165ZM8.99984 2.08333C6.65263 2.08333 4.74984 3.98612 4.74984 6.33333H5.24984C5.24984 4.26227 6.92877 2.58333 8.99984 2.58333V2.08333ZM12.005 3.32813C11.208 2.5311 10.127 2.08333 8.99984 2.08333V2.58333C9.9944 2.58333 10.9482 2.97842 11.6515 3.68168L12.005 3.32813ZM13.2498 6.33333C13.2498 5.20616 12.8021 4.12516 12.005 3.32813L11.6515 3.68168C12.3547 4.38494 12.7498 5.33877 12.7498 6.33333H13.2498ZM8.99984 10.5833C11.347 10.5833 13.2498 8.68054 13.2498 6.33333H12.7498C12.7498 8.4044 11.0709 10.0833 8.99984 10.0833V10.5833ZM4.74984 6.33333C4.74984 8.68054 6.65263 10.5833 8.99984 10.5833V10.0833C6.92877 10.0833 5.24984 8.4044 5.24984 6.33333H4.74984Z" fill="black"/>
<path d="M13.6667 21H4.33333C2.49238 21 1 19.5076 1 17.6666V15C1.00004 14.7646 1.1242 14.5467 1.32667 14.4266L4.66 12.4266C4.97153 12.2858 5.33907 12.4035 5.5109 12.6991C5.68272 12.9946 5.60315 13.3722 5.32667 13.5733L2.33333 15.38V17.6666C2.33333 18.7712 3.22876 19.6666 4.33333 19.6666H13.6667C14.7712 19.6666 15.6667 18.7712 15.6667 17.6666V15.38L12.66 13.5733C12.4281 13.4685 12.2761 13.2408 12.2682 12.9865C12.2603 12.7321 12.3979 12.4955 12.6229 12.3765C12.8478 12.2575 13.1209 12.277 13.3267 12.4266L16.66 14.4266C16.8676 14.5433 16.9972 14.7619 17 15V17.6666C17 19.5076 15.5076 21 13.6667 21Z" fill="#101820" stroke="black" stroke-width="0.5"/>
</svg>
