<svg width="20" height="15" viewBox="0 0 20 15" fill="none" xmlns="http://www.w3.org/2000/svg">
<path d="M6.03402 11.8557L1.98569 7.80736C1.76755 7.58922 1.47169 7.46667 1.16319 7.46667C0.854693 7.46667 0.558831 7.58922 0.340691 7.80736C0.12255 8.0255 0 8.32136 0 8.62986C0 8.78261 0.0300871 8.93387 0.0885429 9.07499C0.146999 9.21611 0.232678 9.34434 0.340691 9.45236L5.21736 14.329C5.67236 14.784 6.40736 14.784 6.86236 14.329L19.2057 1.98569C19.4238 1.76755 19.5464 1.47169 19.5464 1.16319C19.5464 0.854693 19.4238 0.558831 19.2057 0.340691C18.9876 0.12255 18.6917 0 18.3832 0C18.0747 0 17.7788 0.12255 17.5607 0.340691L6.03402 11.8557Z" fill="white"/>
</svg>
